<?xml version="1.0" encoding="UTF-8"?>
<svg xmlns="http://www.w3.org/2000/svg" width="2100" height="900" viewBox="0 0 2100 900">
<defs>
  <marker id="arrow" viewBox="0 0 10 10" refX="8" refY="5" markerWidth="7" markerHeight="7" orient="auto-start-reverse">
    <path d="M 0 0 L 10 5 L 0 10 z" fill="#002FA7"/>
  </marker>
  <style>
    text{font-family:Inter,Helvetica Neue,Noto Sans SC,Microsoft YaHei,Arial,sans-serif}
    .mono{font-family:JetBrains Mono,Consolas,monospace;letter-spacing:.14em}
  </style>
</defs>
<rect width="2100" height="900" fill="#fafaf8"/>
<line x1="110" y1="0" x2="110" y2="900" stroke="#e8e8e5" stroke-width="1" /><line x1="255" y1="0" x2="255" y2="900" stroke="#e8e8e5" stroke-width="1" /><line x1="400" y1="0" x2="400" y2="900" stroke="#e8e8e5" stroke-width="1" /><line x1="545" y1="0" x2="545" y2="900" stroke="#e8e8e5" stroke-width="1" /><line x1="690" y1="0" x2="690" y2="900" stroke="#e8e8e5" stroke-width="1" /><line x1="835" y1="0" x2="835" y2="900" stroke="#e8e8e5" stroke-width="1" /><line x1="980" y1="0" x2="980" y2="900" stroke="#e8e8e5" stroke-width="1" /><line x1="1125" y1="0" x2="1125" y2="900" stroke="#e8e8e5" stroke-width="1" /><line x1="1270" y1="0" x2="1270" y2="900" stroke="#e8e8e5" stroke-width="1" /><line x1="1415" y1="0" x2="1415" y2="900" stroke="#e8e8e5" stroke-width="1" /><line x1="1560" y1="0" x2="1560" y2="900" stroke="#e8e8e5" stroke-width="1" /><line x1="1705" y1="0" x2="1705" y2="900" stroke="#e8e8e5" stroke-width="1" /><line x1="1850" y1="0" x2="1850" y2="900" stroke="#e8e8e5" stroke-width="1" /><line x1="1995" y1="0" x2="1995" y2="900" stroke="#e8e8e5" stroke-width="1" />
<text x="90" y="86" fill="#737373" font-size="22" font-weight="500" class="mono">CONTROL BOUNDARY / SAFETY GATE</text>
<text x="90" y="158" fill="#0a0a0a" font-size="70" font-weight="200" >控制边界与安全门控</text>
<line x1="90" y1="188" x2="2010" y2="188" stroke="#d4d4d2" stroke-width="2" />

<rect x="135" y="300" width="560" height="340" fill="#fafaf8" stroke="#0a0a0a" stroke-width="3" />
<text x="180" y="365" fill="#0a0a0a" font-size="52" font-weight="200" >认知核心</text>
<text x="180" y="425" fill="#0a0a0a" font-size="27" font-weight="300" >生成研判结论、候选参数方案、证据缺口、风险说明和工作流触发请求。</text>
<rect x="775" y="300" width="560" height="340" fill="#002FA7" stroke="#002FA7" stroke-width="3" />
<text x="820" y="365" fill="#fff" font-size="52" font-weight="200" >安全门控 / 工作流</text>
<text x="820" y="425" fill="#fff" font-size="27" font-weight="300" >完成权限校验、参数边界、仿真评估、人工确认、检查点和异常回滚。</text>
<rect x="1415" y="300" width="560" height="340" fill="#fafaf8" stroke="#0a0a0a" stroke-width="3" />
<text x="1460" y="365" fill="#0a0a0a" font-size="52" font-weight="200" >控制执行链路</text>
<text x="1460" y="425" fill="#0a0a0a" font-size="27" font-weight="300" >受理经确认的控制请求，执行波形、波束、门限、跟踪参数等真实下发。</text>
<line x1="695" y1="470" x2="775" y2="470" stroke="#002FA7" stroke-width="4" marker-end="url(#arrow)"/><line x1="1335" y1="470" x2="1415" y2="470" stroke="#002FA7" stroke-width="4" marker-end="url(#arrow)"/>
<line x1="775" y1="685" x2="1335" y2="685" stroke="#002FA7" stroke-width="6" />
<text x="860" y="735" fill="#002FA7" font-size="34" font-weight="300" >高风险动作必须穿过门控，不从 LLM 直接进入控制链路</text>

</svg>