<svg xmlns="http://www.w3.org/2000/svg" width="2200" height="1300" viewBox="0 0 2200 1300">
<defs>
<marker id="arrow" viewBox="0 0 10 10" refX="8.5" refY="5" markerWidth="8" markerHeight="8" orient="auto-start-reverse"><path d="M0,0 L10,5 L0,10 z" fill="#173A5E"/></marker>
<style>text{font-family:"Microsoft YaHei","Noto Sans SC",Arial,sans-serif;dominant-baseline:middle}</style>
</defs>
<rect x="0" y="0" width="2200" height="1300" rx="0" fill="#F7FAFC" stroke="#F7FAFC" stroke-width="0"/>
<rect x="0" y="0" width="2200" height="112" rx="0" fill="#173A5E" stroke="#173A5E" stroke-width="0"/>
<text text-anchor="start" font-size="34" font-weight="700" fill="#FFFFFF"><tspan x="54" y="52.0">图 4.3.3.2-5 认知核心模块处理流程图</tspan></text>
<text text-anchor="end" font-size="20" font-weight="400" fill="#D9E7F5"><tspan x="2140" y="53.0">任务理解 / 能力选择 / 推理规划 / 质量控制</tspan></text>
<line x1="54" y1="1190" x2="2146" y2="1190" stroke="#C8D3DF" stroke-width="2" stroke-linecap="round"/>
<rect x="90" y="420" width="265" height="150" rx="20" fill="#DDEBFA" stroke="#2563A6" stroke-width="3"/>
<rect x="108" y="440" width="44" height="44" rx="22" fill="#2563A6" stroke="#2563A6" stroke-width="0"/>
<text text-anchor="middle" font-size="20" font-weight="700" fill="#FFFFFF"><tspan x="130.0" y="462.0">1</tspan></text>
<text text-anchor="start" font-size="23" font-weight="700" fill="#2563A6"><tspan x="168" y="457.0">任务运行管理</tspan></text>
<text text-anchor="start" font-size="20" font-weight="400" fill="#142033"><tspan x="118" y="506.2">创建任务实例</tspan><tspan x="118" y="534.6">绑定来源、对象、风</tspan><tspan x="118" y="563.0">险等级</tspan></text>
<line x1="355" y1="495" x2="385" y2="495" stroke="#173A5E" stroke-width="4" stroke-linecap="round" marker-end="url(#arrow)"/>
<rect x="385" y="420" width="265" height="150" rx="20" fill="#DDEBFA" stroke="#2563A6" stroke-width="3"/>
<rect x="403" y="440" width="44" height="44" rx="22" fill="#2563A6" stroke="#2563A6" stroke-width="0"/>
<text text-anchor="middle" font-size="20" font-weight="700" fill="#FFFFFF"><tspan x="425.0" y="462.0">2</tspan></text>
<text text-anchor="start" font-size="23" font-weight="700" fill="#2563A6"><tspan x="463" y="457.0">意图理解</tspan></text>
<text text-anchor="start" font-size="20" font-weight="400" fill="#142033"><tspan x="413" y="506.2">解析自然语言和显控</tspan><tspan x="413" y="534.6">上下文</tspan><tspan x="413" y="563.0">抽取任务目标与约束</tspan></text>
<line x1="650" y1="495" x2="680" y2="495" stroke="#173A5E" stroke-width="4" stroke-linecap="round" marker-end="url(#arrow)"/>
<rect x="680" y="420" width="265" height="150" rx="20" fill="#DDEBFA" stroke="#2563A6" stroke-width="3"/>
<rect x="698" y="440" width="44" height="44" rx="22" fill="#2563A6" stroke="#2563A6" stroke-width="0"/>
<text text-anchor="middle" font-size="20" font-weight="700" fill="#FFFFFF"><tspan x="720.0" y="462.0">3</tspan></text>
<text text-anchor="start" font-size="23" font-weight="700" fill="#2563A6"><tspan x="758" y="440.7">上下文与证据组</tspan><tspan x="758" y="473.3">织</tspan></text>
<text text-anchor="start" font-size="20" font-weight="400" fill="#142033"><tspan x="708" y="506.2">装载感知证据、雷达</tspan><tspan x="708" y="534.6">状态</tspan><tspan x="708" y="563.0">历史任务链与知识片</tspan><tspan x="708" y="591.4">段</tspan></text>
<line x1="945" y1="495" x2="975" y2="495" stroke="#173A5E" stroke-width="4" stroke-linecap="round" marker-end="url(#arrow)"/>
<rect x="975" y="420" width="265" height="150" rx="20" fill="#EEE8FF" stroke="#6950A1" stroke-width="3"/>
<rect x="993" y="440" width="44" height="44" rx="22" fill="#6950A1" stroke="#6950A1" stroke-width="0"/>
<text text-anchor="middle" font-size="20" font-weight="700" fill="#FFFFFF"><tspan x="1015.0" y="462.0">4</tspan></text>
<text text-anchor="start" font-size="23" font-weight="700" fill="#6950A1"><tspan x="1053" y="457.0">能力包选择</tspan></text>
<text text-anchor="start" font-size="20" font-weight="400" fill="#142033"><tspan x="1003" y="506.2">匹配目标研判、参数</tspan><tspan x="1003" y="534.6">优化</tspan><tspan x="1003" y="563.0">异常归因或工作流能</tspan><tspan x="1003" y="591.4">力</tspan></text>
<line x1="1240" y1="495" x2="1270" y2="495" stroke="#173A5E" stroke-width="4" stroke-linecap="round" marker-end="url(#arrow)"/>
<rect x="1270" y="420" width="265" height="150" rx="20" fill="#EEE8FF" stroke="#6950A1" stroke-width="3"/>
<rect x="1288" y="440" width="44" height="44" rx="22" fill="#6950A1" stroke="#6950A1" stroke-width="0"/>
<text text-anchor="middle" font-size="20" font-weight="700" fill="#FFFFFF"><tspan x="1310.0" y="462.0">5</tspan></text>
<text text-anchor="start" font-size="23" font-weight="700" fill="#6950A1"><tspan x="1348" y="457.0">执行路径规划</tspan></text>
<text text-anchor="start" font-size="20" font-weight="400" fill="#142033"><tspan x="1298" y="506.2">选择动态工具调用</tspan><tspan x="1298" y="534.6">或受控工作流模板</tspan></text>
<line x1="1535" y1="495" x2="1565" y2="495" stroke="#173A5E" stroke-width="4" stroke-linecap="round" marker-end="url(#arrow)"/>
<rect x="1565" y="420" width="265" height="150" rx="20" fill="#E3F3DC" stroke="#477A36" stroke-width="3"/>
<rect x="1583" y="440" width="44" height="44" rx="22" fill="#477A36" stroke="#477A36" stroke-width="0"/>
<text text-anchor="middle" font-size="20" font-weight="700" fill="#FFFFFF"><tspan x="1605.0" y="462.0">6</tspan></text>
<text text-anchor="start" font-size="23" font-weight="700" fill="#477A36"><tspan x="1643" y="457.0">推理与结果生成</tspan></text>
<text text-anchor="start" font-size="20" font-weight="400" fill="#142033"><tspan x="1593" y="506.2">形成研判结论、候选</tspan><tspan x="1593" y="534.6">方案</tspan><tspan x="1593" y="563.0">风险说明和补证要求</tspan></text>
<line x1="1830" y1="495" x2="1860" y2="495" stroke="#173A5E" stroke-width="4" stroke-linecap="round" marker-end="url(#arrow)"/>
<rect x="1860" y="420" width="265" height="150" rx="20" fill="#E3F3DC" stroke="#477A36" stroke-width="3"/>
<rect x="1878" y="440" width="44" height="44" rx="22" fill="#477A36" stroke="#477A36" stroke-width="0"/>
<text text-anchor="middle" font-size="20" font-weight="700" fill="#FFFFFF"><tspan x="1900.0" y="462.0">7</tspan></text>
<text text-anchor="start" font-size="23" font-weight="700" fill="#477A36"><tspan x="1938" y="457.0">响应质量控制</tspan></text>
<text text-anchor="start" font-size="20" font-weight="400" fill="#142033"><tspan x="1888" y="506.2">检查事实依据、证据</tspan><tspan x="1888" y="534.6">引用</tspan><tspan x="1888" y="563.0">不确定性和安全表达</tspan></text>
<rect x="610" y="225" width="980" height="85" rx="22" fill="#EDF2F7" stroke="#C8D3DF" stroke-width="3"/>
<text text-anchor="middle" font-size="27" font-weight="700" fill="#173A5E"><tspan x="1100.0" y="265.0">大语言模型推理引擎 + 雷达专业能力包 + 受控工具/工作流</tspan></text>
<line x1="1100" y1="310" x2="1100" y2="420" stroke="#C8D3DF" stroke-width="4" stroke-linecap="round"/>
<rect x="660" y="760" width="880" height="105" rx="22" fill="#FFF0CC" stroke="#B06A00" stroke-width="3"/>
<text text-anchor="middle" font-size="25" font-weight="700" fill="#142033"><tspan x="1100.0" y="806.5">输出：研判摘要、证据链、候选参数方案、流程触发建议、风险提示</tspan></text>
<line x1="1992" y1="570" x2="1992" y2="812" stroke="#477A36" stroke-width="4" stroke-linecap="round" marker-end="url(#arrow)"/>
<line x1="1992" y1="812" x2="1540" y2="812" stroke="#477A36" stroke-width="4" stroke-linecap="round" marker-end="url(#arrow)"/>
<text text-anchor="middle" font-size="22" font-weight="400" fill="#607085"><tspan x="1100.0" y="1231.0">认知核心的工程价值在于把开放推理纳入任务实例、能力包、证据引用和质量控制约束。</tspan></text>
</svg>