<svg xmlns="http://www.w3.org/2000/svg" width="2200" height="1300" viewBox="0 0 2200 1300">
<defs>
<marker id="arrow" viewBox="0 0 10 10" refX="8.5" refY="5" markerWidth="8" markerHeight="8" orient="auto-start-reverse"><path d="M0,0 L10,5 L0,10 z" fill="#173A5E"/></marker>
<style>text{font-family:"Microsoft YaHei","Noto Sans SC",Arial,sans-serif;dominant-baseline:middle}</style>
</defs>
<rect x="0" y="0" width="2200" height="1300" rx="0" fill="#F7FAFC" stroke="#F7FAFC" stroke-width="0"/>
<rect x="0" y="0" width="2200" height="112" rx="0" fill="#173A5E" stroke="#173A5E" stroke-width="0"/>
<text text-anchor="start" font-size="34" font-weight="700" fill="#FFFFFF"><tspan x="54" y="52.0">图 4.3.3.2-6 三阶分层记忆与经验回流图</tspan></text>
<text text-anchor="end" font-size="20" font-weight="400" fill="#D9E7F5"><tspan x="2140" y="53.0">短期上下文 / 中期任务链 / 长期经验资产</tspan></text>
<line x1="54" y1="1190" x2="2146" y2="1190" stroke="#C8D3DF" stroke-width="2" stroke-linecap="round"/>
<rect x="100" y="450" width="330" height="190" rx="20" fill="#DDEBFA" stroke="#2563A6" stroke-width="3"/>
<rect x="100" y="450" width="330" height="54" rx="20" fill="#2563A6" stroke="#2563A6" stroke-width="0"/>
<text text-anchor="start" font-size="21" font-weight="700" fill="#FFFFFF"><tspan x="122" y="478.0">当前任务上下文</tspan></text>
<text text-anchor="start" font-size="19" font-weight="400" fill="#142033"><tspan x="124" y="521.5">任务目标、感知证据、雷达状态</tspan><tspan x="124" y="548.5">、工具结果、候选方案、检查点</tspan></text>
<rect x="520" y="240" width="360" height="190" rx="20" fill="#D9F2EE" stroke="#0F766E" stroke-width="3"/>
<rect x="520" y="240" width="360" height="54" rx="20" fill="#0F766E" stroke="#0F766E" stroke-width="0"/>
<text text-anchor="start" font-size="21" font-weight="700" fill="#FFFFFF"><tspan x="542" y="268.0">短期记忆</tspan></text>
<text text-anchor="start" font-size="19" font-weight="400" fill="#142033"><tspan x="544" y="311.5">上下文版本、证据编号、工具结果、</tspan><tspan x="544" y="338.5">流程状态，用于当前任务不断裂。</tspan></text>
<rect x="960" y="450" width="360" height="190" rx="20" fill="#EEE8FF" stroke="#6950A1" stroke-width="3"/>
<rect x="960" y="450" width="360" height="54" rx="20" fill="#6950A1" stroke="#6950A1" stroke-width="0"/>
<text text-anchor="start" font-size="21" font-weight="700" fill="#FFFFFF"><tspan x="982" y="478.0">追溯记录</tspan></text>
<text text-anchor="start" font-size="19" font-weight="400" fill="#142033"><tspan x="984" y="521.5">输入、推理、工具调用、工作流节点</tspan><tspan x="984" y="548.5">、审批动作、输出结果和反馈。</tspan></text>
<rect x="1400" y="240" width="360" height="190" rx="20" fill="#FFF0CC" stroke="#B06A00" stroke-width="3"/>
<rect x="1400" y="240" width="360" height="54" rx="20" fill="#B06A00" stroke="#B06A00" stroke-width="0"/>
<text text-anchor="start" font-size="21" font-weight="700" fill="#FFFFFF"><tspan x="1422" y="268.0">中期任务链</tspan></text>
<text text-anchor="start" font-size="19" font-weight="400" fill="#142033"><tspan x="1424" y="311.5">目标链、区域链、参数链、异常链，</tspan><tspan x="1424" y="338.5">用于近期连续任务关联。</tspan></text>
<rect x="1770" y="450" width="330" height="190" rx="20" fill="#E3F3DC" stroke="#477A36" stroke-width="3"/>
<rect x="1770" y="450" width="330" height="54" rx="20" fill="#477A36" stroke="#477A36" stroke-width="0"/>
<text text-anchor="start" font-size="21" font-weight="700" fill="#FFFFFF"><tspan x="1792" y="478.0">长期经验资产</tspan></text>
<text text-anchor="start" font-size="19" font-weight="400" fill="#142033"><tspan x="1794" y="521.5">知识库、案例库、策略库、经验</tspan><tspan x="1794" y="548.5">库，带版本、来源和适用边界。</tspan></text>
<line x1="430" y1="545" x2="520" y2="335" stroke="#2563A6" stroke-width="5" stroke-linecap="round" marker-end="url(#arrow)"/>
<line x1="880" y1="335" x2="960" y2="545" stroke="#0F766E" stroke-width="5" stroke-linecap="round" marker-end="url(#arrow)"/>
<line x1="1320" y1="545" x2="1400" y2="335" stroke="#6950A1" stroke-width="5" stroke-linecap="round" marker-end="url(#arrow)"/>
<line x1="1760" y1="335" x2="1770" y2="545" stroke="#B06A00" stroke-width="5" stroke-linecap="round" marker-end="url(#arrow)"/>
<rect x="760" y="780" width="690" height="125" rx="24" fill="#FDE2E2" stroke="#B43A3A" stroke-width="3"/>
<text text-anchor="middle" font-size="30" font-weight="700" fill="#B43A3A"><tspan x="1105.0" y="821.0">质量评估与复核</tspan></text>
<text text-anchor="middle" font-size="23" font-weight="400" fill="#142033"><tspan x="1105.0" y="850.7">冲突检查 / 适用条件 / 版本管理 / 影子运行 </tspan><tspan x="1105.0" y="883.3">/ 人工复核</tspan></text>
<line x1="1140" y1="640" x2="1140" y2="780" stroke="#B43A3A" stroke-width="5" stroke-linecap="round" marker-end="url(#arrow)"/>
<line x1="1935" y1="640" x2="1935" y2="1010" stroke="#477A36" stroke-width="4" stroke-linecap="round" stroke-dasharray="12 10" marker-end="url(#arrow)"/>
<line x1="1935" y1="1010" x2="265" y2="1010" stroke="#477A36" stroke-width="4" stroke-linecap="round" stroke-dasharray="12 10" marker-end="url(#arrow)"/>
<line x1="265" y1="1010" x2="265" y2="640" stroke="#477A36" stroke-width="4" stroke-linecap="round" stroke-dasharray="12 10" marker-end="url(#arrow)"/>
<text text-anchor="middle" font-size="25" font-weight="700" fill="#477A36"><tspan x="1095.0" y="1050.0">受控回流：相似案例、策略推荐、工具匹配、流程优化</tspan></text>
<text text-anchor="middle" font-size="22" font-weight="400" fill="#607085"><tspan x="1100.0" y="1231.0">经验回流不是简单归档：任务记录先成为经验候选，再经质量评估和复核后进入长期资产。</tspan></text>
</svg>