<svg xmlns="http://www.w3.org/2000/svg" width="2200" height="1300" viewBox="0 0 2200 1300">
<defs>
<marker id="arrow" viewBox="0 0 10 10" refX="8.5" refY="5" markerWidth="8" markerHeight="8" orient="auto-start-reverse"><path d="M0,0 L10,5 L0,10 z" fill="#173A5E"/></marker>
<style>text{font-family:"Microsoft YaHei","Noto Sans SC",Arial,sans-serif;dominant-baseline:middle}</style>
</defs>
<rect x="0" y="0" width="2200" height="1300" rx="0" fill="#F7FAFC" stroke="#F7FAFC" stroke-width="0"/>
<rect x="0" y="0" width="2200" height="112" rx="0" fill="#173A5E" stroke="#173A5E" stroke-width="0"/>
<text text-anchor="start" font-size="34" font-weight="700" fill="#FFFFFF"><tspan x="54" y="52.0">图 4.3.3.2-9 雷达智能体子系统接口关系图</tspan></text>
<text text-anchor="end" font-size="20" font-weight="400" fill="#D9E7F5"><tspan x="2140" y="53.0">外部接口 / 内部接口 / 统一引用</tspan></text>
<line x1="54" y1="1190" x2="2146" y2="1190" stroke="#C8D3DF" stroke-width="2" stroke-linecap="round"/>
<rect x="730" y="235" width="740" height="560" rx="24" fill="#FFFFFF" stroke="#173A5E" stroke-width="4"/>
<rect x="730" y="235" width="740" height="68" rx="24" fill="#173A5E" stroke="#173A5E" stroke-width="0"/>
<text text-anchor="middle" font-size="28" font-weight="700" fill="#FFFFFF"><tspan x="1100.0" y="267.0">雷达智能体子系统接口域</tspan></text>
<rect x="790" y="350" width="170" height="68" rx="15" fill="#EDF2F7" stroke="#2563A6" stroke-width="3"/>
<text text-anchor="middle" font-size="18" font-weight="700" fill="#142033"><tspan x="875.0" y="382.0">外部接入接口</tspan></text>
<rect x="1030" y="350" width="170" height="68" rx="15" fill="#EDF2F7" stroke="#6950A1" stroke-width="3"/>
<text text-anchor="middle" font-size="18" font-weight="700" fill="#142033"><tspan x="1115.0" y="382.0">任务运行管理接口</tspan></text>
<rect x="1270" y="350" width="170" height="68" rx="15" fill="#EDF2F7" stroke="#6950A1" stroke-width="3"/>
<text text-anchor="middle" font-size="18" font-weight="700" fill="#142033"><tspan x="1355.0" y="382.0">认知推理接口</tspan></text>
<rect x="790" y="500" width="170" height="68" rx="15" fill="#EDF2F7" stroke="#477A36" stroke-width="3"/>
<text text-anchor="middle" font-size="18" font-weight="700" fill="#142033"><tspan x="875.0" y="532.0">记忆读写接口</tspan></text>
<rect x="1030" y="500" width="170" height="68" rx="15" fill="#EDF2F7" stroke="#0F766E" stroke-width="3"/>
<text text-anchor="middle" font-size="18" font-weight="700" fill="#142033"><tspan x="1115.0" y="532.0">工具代理接口</tspan></text>
<rect x="1270" y="500" width="170" height="68" rx="15" fill="#EDF2F7" stroke="#B06A00" stroke-width="3"/>
<text text-anchor="middle" font-size="18" font-weight="700" fill="#142033"><tspan x="1355.0" y="532.0">工作流代理接口</tspan></text>
<rect x="790" y="650" width="170" height="68" rx="15" fill="#EDF2F7" stroke="#B43A3A" stroke-width="3"/>
<text text-anchor="middle" font-size="18" font-weight="700" fill="#142033"><tspan x="875.0" y="682.0">门控判定接口</tspan></text>
<rect x="1030" y="650" width="170" height="68" rx="15" fill="#EDF2F7" stroke="#477A36" stroke-width="3"/>
<text text-anchor="middle" font-size="18" font-weight="700" fill="#142033"><tspan x="1115.0" y="682.0">数据库接入接口</tspan></text>
<rect x="1270" y="650" width="170" height="68" rx="15" fill="#EDF2F7" stroke="#2563A6" stroke-width="3"/>
<text text-anchor="middle" font-size="18" font-weight="700" fill="#142033"><tspan x="1355.0" y="682.0">追溯记录接口</tspan></text>
<rect x="80" y="230" width="390" height="120" rx="20" fill="#DDEBFA" stroke="#2563A6" stroke-width="3"/>
<rect x="80" y="230" width="390" height="54" rx="20" fill="#2563A6" stroke="#2563A6" stroke-width="0"/>
<text text-anchor="start" font-size="21" font-weight="700" fill="#FFFFFF"><tspan x="102" y="258.0">显控分系统</tspan></text>
<text text-anchor="start" font-size="19" font-weight="400" fill="#142033"><tspan x="104" y="301.5">HTTP / 消息</tspan><tspan x="104" y="328.5">任务提交、状态、结果</tspan></text>
<rect x="80" y="470" width="390" height="120" rx="20" fill="#D9F2EE" stroke="#0F766E" stroke-width="3"/>
<rect x="80" y="470" width="390" height="54" rx="20" fill="#0F766E" stroke="#0F766E" stroke-width="0"/>
<text text-anchor="start" font-size="21" font-weight="700" fill="#FFFFFF"><tspan x="102" y="498.0">信息处理感知子系统</tspan></text>
<text text-anchor="start" font-size="19" font-weight="400" fill="#142033"><tspan x="104" y="541.5">消息接口</tspan><tspan x="104" y="568.5">感知结果接入</tspan></text>
<rect x="80" y="710" width="390" height="120" rx="20" fill="#FFF0CC" stroke="#B06A00" stroke-width="3"/>
<rect x="80" y="710" width="390" height="54" rx="20" fill="#B06A00" stroke="#B06A00" stroke-width="0"/>
<text text-anchor="start" font-size="21" font-weight="700" fill="#FFFFFF"><tspan x="102" y="738.0">试验评估/样本/运维</tspan></text>
<text text-anchor="start" font-size="19" font-weight="400" fill="#142033"><tspan x="104" y="781.5">HTTP / 文件</tspan><tspan x="104" y="808.5">评估导出、样本沉淀</tspan></text>
<rect x="1635" y="230" width="390" height="120" rx="20" fill="#E3F3DC" stroke="#477A36" stroke-width="3"/>
<rect x="1635" y="230" width="390" height="54" rx="20" fill="#477A36" stroke="#477A36" stroke-width="0"/>
<text text-anchor="start" font-size="21" font-weight="700" fill="#FFFFFF"><tspan x="1657" y="258.0">雷达状态与环境服务</tspan></text>
<text text-anchor="start" font-size="19" font-weight="400" fill="#142033"><tspan x="1659" y="301.5">网络通信 / 消息</tspan><tspan x="1659" y="328.5">状态、参数、告警</tspan></text>
<rect x="1635" y="470" width="390" height="120" rx="20" fill="#FDE2E2" stroke="#B43A3A" stroke-width="3"/>
<rect x="1635" y="470" width="390" height="54" rx="20" fill="#B43A3A" stroke="#B43A3A" stroke-width="0"/>
<text text-anchor="start" font-size="21" font-weight="700" fill="#FFFFFF"><tspan x="1657" y="498.0">控制执行链路</tspan></text>
<text text-anchor="start" font-size="19" font-weight="400" fill="#142033"><tspan x="1659" y="541.5">网络通信</tspan><tspan x="1659" y="568.5">经审批控制请求</tspan></text>
<rect x="1635" y="710" width="390" height="120" rx="20" fill="#EEE8FF" stroke="#6950A1" stroke-width="3"/>
<rect x="1635" y="710" width="390" height="54" rx="20" fill="#6950A1" stroke="#6950A1" stroke-width="0"/>
<text text-anchor="start" font-size="21" font-weight="700" fill="#FFFFFF"><tspan x="1657" y="738.0">数据知识底座</tspan></text>
<text text-anchor="start" font-size="19" font-weight="400" fill="#142033"><tspan x="1659" y="781.5">HTTP / 数据库</tspan><tspan x="1659" y="808.5">知识、案例、图、时序</tspan></text>
<line x1="470" y1="290" x2="730" y2="385" stroke="#2563A6" stroke-width="5" stroke-linecap="round" marker-end="url(#arrow)"/>
<line x1="470" y1="530" x2="730" y2="385" stroke="#0F766E" stroke-width="5" stroke-linecap="round" marker-end="url(#arrow)"/>
<line x1="470" y1="770" x2="730" y2="690" stroke="#B06A00" stroke-width="5" stroke-linecap="round" marker-end="url(#arrow)"/>
<line x1="1635" y1="290" x2="1470" y2="385" stroke="#477A36" stroke-width="5" stroke-linecap="round" marker-end="url(#arrow)"/>
<line x1="1635" y1="530" x2="1470" y2="690" stroke="#B43A3A" stroke-width="5" stroke-linecap="round" marker-end="url(#arrow)"/>
<line x1="1635" y1="770" x2="1470" y2="690" stroke="#6950A1" stroke-width="5" stroke-linecap="round" marker-end="url(#arrow)"/>
<rect x="370" y="1000" width="1460" height="78" rx="20" fill="#EDF2F7" stroke="#C8D3DF" stroke-width="3"/>
<text text-anchor="middle" font-size="27" font-weight="700" fill="#173A5E"><tspan x="1100.0" y="1035.0">统一引用：任务标识 · 目标/区域引用 · 证据引用 · 追溯引用</tspan></text>
<rect x="500" y="1105" width="155" height="42" rx="21" fill="#2563A6" stroke="#2563A6" stroke-width="0"/>
<text text-anchor="middle" font-size="18" font-weight="700" fill="#FFFFFF"><tspan x="577.5" y="1126.0">HTTP</tspan></text>
<rect x="705" y="1105" width="155" height="42" rx="21" fill="#0F766E" stroke="#0F766E" stroke-width="0"/>
<text text-anchor="middle" font-size="18" font-weight="700" fill="#FFFFFF"><tspan x="782.5" y="1126.0">消息</tspan></text>
<rect x="910" y="1105" width="155" height="42" rx="21" fill="#477A36" stroke="#477A36" stroke-width="0"/>
<text text-anchor="middle" font-size="18" font-weight="700" fill="#FFFFFF"><tspan x="987.5" y="1126.0">网络通信</tspan></text>
<rect x="1115" y="1105" width="155" height="42" rx="21" fill="#6950A1" stroke="#6950A1" stroke-width="0"/>
<text text-anchor="middle" font-size="18" font-weight="700" fill="#FFFFFF"><tspan x="1192.5" y="1126.0">数据库</tspan></text>
<rect x="1320" y="1105" width="155" height="42" rx="21" fill="#B06A00" stroke="#B06A00" stroke-width="0"/>
<text text-anchor="middle" font-size="18" font-weight="700" fill="#FFFFFF"><tspan x="1397.5" y="1126.0">文件</tspan></text>
<rect x="1525" y="1105" width="155" height="42" rx="21" fill="#B43A3A" stroke="#B43A3A" stroke-width="0"/>
<text text-anchor="middle" font-size="18" font-weight="700" fill="#FFFFFF"><tspan x="1602.5" y="1126.0">函数库调用</tspan></text>
<text text-anchor="middle" font-size="22" font-weight="400" fill="#607085"><tspan x="1100.0" y="1231.0">接口类型按软件实现形态描述；TCP/UDP、端口、报文和字段细节在后续接口控制文档中细化。</tspan></text>
</svg>