<?xml version="1.0" encoding="UTF-8"?>
<svg xmlns="http://www.w3.org/2000/svg" width="1600" height="940" viewBox="0 0 1600 940">
  <defs>
    <marker id="arrow" markerWidth="12" markerHeight="12" refX="10" refY="6" orient="auto" markerUnits="strokeWidth">
      <path d="M2,2 L10,6 L2,10 Z" fill="#2563eb"/>
    </marker>
    <filter id="softShadow" x="-8%" y="-12%" width="116%" height="128%">
      <feDropShadow dx="0" dy="4" stdDeviation="4" flood-color="#1d4ed8" flood-opacity="0.13"/>
    </filter>
  </defs>
  <rect x="0" y="0" width="1600" height="940" fill="#f8fbff"/>
  <line x1="0" y1="0" x2="0" y2="940" stroke="#e6f0ff" stroke-width="1" opacity="0.45"/>
  <line x1="80" y1="0" x2="80" y2="940" stroke="#e6f0ff" stroke-width="1" opacity="0.45"/>
  <line x1="160" y1="0" x2="160" y2="940" stroke="#e6f0ff" stroke-width="1" opacity="0.45"/>
  <line x1="240" y1="0" x2="240" y2="940" stroke="#e6f0ff" stroke-width="1" opacity="0.45"/>
  <line x1="320" y1="0" x2="320" y2="940" stroke="#e6f0ff" stroke-width="1" opacity="0.45"/>
  <line x1="400" y1="0" x2="400" y2="940" stroke="#e6f0ff" stroke-width="1" opacity="0.45"/>
  <line x1="480" y1="0" x2="480" y2="940" stroke="#e6f0ff" stroke-width="1" opacity="0.45"/>
  <line x1="560" y1="0" x2="560" y2="940" stroke="#e6f0ff" stroke-width="1" opacity="0.45"/>
  <line x1="640" y1="0" x2="640" y2="940" stroke="#e6f0ff" stroke-width="1" opacity="0.45"/>
  <line x1="720" y1="0" x2="720" y2="940" stroke="#e6f0ff" stroke-width="1" opacity="0.45"/>
  <line x1="800" y1="0" x2="800" y2="940" stroke="#e6f0ff" stroke-width="1" opacity="0.45"/>
  <line x1="880" y1="0" x2="880" y2="940" stroke="#e6f0ff" stroke-width="1" opacity="0.45"/>
  <line x1="960" y1="0" x2="960" y2="940" stroke="#e6f0ff" stroke-width="1" opacity="0.45"/>
  <line x1="1040" y1="0" x2="1040" y2="940" stroke="#e6f0ff" stroke-width="1" opacity="0.45"/>
  <line x1="1120" y1="0" x2="1120" y2="940" stroke="#e6f0ff" stroke-width="1" opacity="0.45"/>
  <line x1="1200" y1="0" x2="1200" y2="940" stroke="#e6f0ff" stroke-width="1" opacity="0.45"/>
  <line x1="1280" y1="0" x2="1280" y2="940" stroke="#e6f0ff" stroke-width="1" opacity="0.45"/>
  <line x1="1360" y1="0" x2="1360" y2="940" stroke="#e6f0ff" stroke-width="1" opacity="0.45"/>
  <line x1="1440" y1="0" x2="1440" y2="940" stroke="#e6f0ff" stroke-width="1" opacity="0.45"/>
  <line x1="1520" y1="0" x2="1520" y2="940" stroke="#e6f0ff" stroke-width="1" opacity="0.45"/>
  <line x1="1600" y1="0" x2="1600" y2="940" stroke="#e6f0ff" stroke-width="1" opacity="0.45"/>
  <line x1="0" y1="0" x2="1600" y2="0" stroke="#e6f0ff" stroke-width="1" opacity="0.45"/>
  <line x1="0" y1="80" x2="1600" y2="80" stroke="#e6f0ff" stroke-width="1" opacity="0.45"/>
  <line x1="0" y1="160" x2="1600" y2="160" stroke="#e6f0ff" stroke-width="1" opacity="0.45"/>
  <line x1="0" y1="240" x2="1600" y2="240" stroke="#e6f0ff" stroke-width="1" opacity="0.45"/>
  <line x1="0" y1="320" x2="1600" y2="320" stroke="#e6f0ff" stroke-width="1" opacity="0.45"/>
  <line x1="0" y1="400" x2="1600" y2="400" stroke="#e6f0ff" stroke-width="1" opacity="0.45"/>
  <line x1="0" y1="480" x2="1600" y2="480" stroke="#e6f0ff" stroke-width="1" opacity="0.45"/>
  <line x1="0" y1="560" x2="1600" y2="560" stroke="#e6f0ff" stroke-width="1" opacity="0.45"/>
  <line x1="0" y1="640" x2="1600" y2="640" stroke="#e6f0ff" stroke-width="1" opacity="0.45"/>
  <line x1="0" y1="720" x2="1600" y2="720" stroke="#e6f0ff" stroke-width="1" opacity="0.45"/>
  <line x1="0" y1="800" x2="1600" y2="800" stroke="#e6f0ff" stroke-width="1" opacity="0.45"/>
  <line x1="0" y1="880" x2="1600" y2="880" stroke="#e6f0ff" stroke-width="1" opacity="0.45"/>
  <rect x="30" y="30" width="1540" height="880" rx="26" fill="none" stroke="#bfdbfe" stroke-width="2"/>
  <line x1="300" y1="166" x2="455" y2="221" stroke="#2563eb" stroke-width="3" marker-end="url(#arrow)" opacity="0.9"/>
  <line x1="300" y1="296" x2="455" y2="221" stroke="#2563eb" stroke-width="3" marker-end="url(#arrow)" opacity="0.9"/>
  <path d="M 300 426 L 520 426 L 520 221 L 740 221" fill="none" stroke="#2563eb" stroke-width="3" marker-end="url(#arrow)" stroke-linejoin="round" opacity="0.9"/>
  <path d="M 300 556 L 520 556 L 520 221 L 740 221" fill="none" stroke="#2563eb" stroke-width="3" marker-end="url(#arrow)" stroke-linejoin="round" opacity="0.9"/>
  <line x1="567.5" y1="257" x2="567.5" y2="300" stroke="#2563eb" stroke-width="3" marker-end="url(#arrow)" opacity="0.9"/>
  <line x1="740" y1="221" x2="680" y2="343" stroke="#2563eb" stroke-width="3" marker-end="url(#arrow)" opacity="0.9"/>
  <line x1="680" y1="343" x2="740" y2="343" stroke="#2563eb" stroke-width="3" marker-end="url(#arrow)" opacity="0.9"/>
  <line x1="740" y1="343" x2="680" y2="476" stroke="#2563eb" stroke-width="3" marker-end="url(#arrow)" opacity="0.9"/>
  <line x1="852.5" y1="386" x2="852.5" y2="435" stroke="#2563eb" stroke-width="3" marker-end="url(#arrow)" opacity="0.9"/>
  <line x1="680" y1="476" x2="510" y2="586" stroke="#2563eb" stroke-width="3" marker-end="url(#arrow)" opacity="0.9"/>
  <line x1="740" y1="476" x2="910" y2="586" stroke="#2563eb" stroke-width="3" marker-end="url(#arrow)" opacity="0.9"/>
  <line x1="710" y1="555" x2="852.5" y2="257" stroke="#2563eb" stroke-width="3" marker-end="url(#arrow)" opacity="0.9"/>
  <path d="M 680 343 L 905 343 L 905 161 L 1130 161" fill="none" stroke="#2563eb" stroke-width="3" marker-end="url(#arrow)" stroke-linejoin="round" opacity="0.9"/>
  <line x1="965" y1="343" x2="1130" y2="266" stroke="#2563eb" stroke-width="3" marker-end="url(#arrow)" opacity="0.9"/>
  <path d="M 680 476 L 905 476 L 905 371 L 1130 371" fill="none" stroke="#2563eb" stroke-width="3" marker-end="url(#arrow)" stroke-linejoin="round" opacity="0.9"/>
  <line x1="965" y1="476" x2="1130" y2="476" stroke="#2563eb" stroke-width="3" marker-end="url(#arrow)" opacity="0.9"/>
  <path d="M 910 586 L 1020 586 L 1020 581 L 1130 581" fill="none" stroke="#2563eb" stroke-width="3" marker-end="url(#arrow)" stroke-linejoin="round" opacity="0.9"/>
  <line x1="1130" y1="476" x2="1080" y2="774" stroke="#2563eb" stroke-width="3" marker-end="url(#arrow)" opacity="0.9"/>
  <line x1="1080" y1="774" x2="1120" y2="774" stroke="#2563eb" stroke-width="3" marker-end="url(#arrow)" opacity="0.9"/>
  <path d="M 1120 774 L 710 774 L 710 166 L 300 166" fill="none" stroke="#2563eb" stroke-width="3" marker-end="url(#arrow)" stroke-linejoin="round" opacity="0.9"/>
  <rect x="70" y="120" width="230" height="92" rx="14" fill="#ffffff" stroke="#2563eb" stroke-width="2.4" filter="url(#softShadow)"/>
<text x="185" y="150.5" text-anchor="middle" dominant-baseline="middle" fill="#17376b" font-size="23" font-family="Microsoft YaHei, SimHei, Arial, sans-serif" font-weight="600"><tspan x="185" dy="0">显控任务</tspan><tspan x="185" dy="31">人机交互输入</tspan></text>
  <rect x="70" y="250" width="230" height="92" rx="14" fill="#ffffff" stroke="#2563eb" stroke-width="2.4" filter="url(#softShadow)"/>
<text x="185" y="280.5" text-anchor="middle" dominant-baseline="middle" fill="#17376b" font-size="23" font-family="Microsoft YaHei, SimHei, Arial, sans-serif" font-weight="600"><tspan x="185" dy="0">感知结果</tspan><tspan x="185" dy="31">目标状态/异常评分</tspan></text>
  <rect x="70" y="380" width="230" height="92" rx="14" fill="#ffffff" stroke="#2563eb" stroke-width="2.4" filter="url(#softShadow)"/>
<text x="185" y="410.5" text-anchor="middle" dominant-baseline="middle" fill="#17376b" font-size="23" font-family="Microsoft YaHei, SimHei, Arial, sans-serif" font-weight="600"><tspan x="185" dy="0">雷达状态</tspan><tspan x="185" dy="31">资源/模式/参数版本</tspan></text>
  <rect x="70" y="510" width="230" height="92" rx="14" fill="#ffffff" stroke="#2563eb" stroke-width="2.4" filter="url(#softShadow)"/>
<text x="185" y="540.5" text-anchor="middle" dominant-baseline="middle" fill="#17376b" font-size="23" font-family="Microsoft YaHei, SimHei, Arial, sans-serif" font-weight="600"><tspan x="185" dy="0">数据知识底座</tspan><tspan x="185" dy="31">历史案例/专业知识</tspan></text>
  <rect x="400" y="90" width="620" height="560" rx="22" fill="#eff6ff" stroke="#2563eb" stroke-width="3" filter="url(#softShadow)"/>
<text x="710" y="354" text-anchor="middle" dominant-baseline="middle" fill="#17376b" font-size="24" font-family="Microsoft YaHei, SimHei, Arial, sans-serif" font-weight="600"><tspan x="710" dy="0">Agent Harness 运行底座</tspan><tspan x="710" dy="32">任务生命周期、状态管理、能力路由、异常恢复、结果发布</tspan></text>
  <rect x="455" y="185" width="225" height="72" rx="14" fill="#ffffff" stroke="#2563eb" stroke-width="2.4" filter="url(#softShadow)"/>
<text x="567.5" y="205.5" text-anchor="middle" dominant-baseline="middle" fill="#17376b" font-size="23" font-family="Microsoft YaHei, SimHei, Arial, sans-serif" font-weight="600"><tspan x="567.5" dy="0">任务实例与状态机</tspan><tspan x="567.5" dy="31">编号/对象/风险等级</tspan></text>
  <rect x="740" y="185" width="225" height="72" rx="14" fill="#ffffff" stroke="#2563eb" stroke-width="2.4" filter="url(#softShadow)"/>
<text x="852.5" y="205.5" text-anchor="middle" dominant-baseline="middle" fill="#17376b" font-size="23" font-family="Microsoft YaHei, SimHei, Arial, sans-serif" font-weight="600"><tspan x="852.5" dy="0">上下文工程</tspan><tspan x="852.5" dy="31">证据选择/版本固化</tspan></text>
  <rect x="455" y="300" width="225" height="86" rx="14" fill="#ecfeff" stroke="#2563eb" stroke-width="2.4" filter="url(#softShadow)"/>
<text x="567.5" y="327.5" text-anchor="middle" dominant-baseline="middle" fill="#17376b" font-size="23" font-family="Microsoft YaHei, SimHei, Arial, sans-serif" font-weight="600"><tspan x="567.5" dy="0">LLM 推理引擎</tspan><tspan x="567.5" dy="31">任务理解/证据解释/方案生成</tspan></text>
  <rect x="740" y="300" width="225" height="86" rx="14" fill="#ecfeff" stroke="#2563eb" stroke-width="2.4" filter="url(#softShadow)"/>
<text x="852.5" y="327.5" text-anchor="middle" dominant-baseline="middle" fill="#17376b" font-size="23" font-family="Microsoft YaHei, SimHei, Arial, sans-serif" font-weight="600"><tspan x="852.5" dy="0">雷达 Skills 能力包</tspan><tspan x="852.5" dy="31">研判/调度/波形/复盘</tspan></text>
  <rect x="455" y="435" width="225" height="82" rx="14" fill="#ffffff" stroke="#2563eb" stroke-width="2.4" filter="url(#softShadow)"/>
<text x="567.5" y="460.5" text-anchor="middle" dominant-baseline="middle" fill="#17376b" font-size="23" font-family="Microsoft YaHei, SimHei, Arial, sans-serif" font-weight="600"><tspan x="567.5" dy="0">工具调用</tspan><tspan x="567.5" dy="31">查询/计算/仿真/校验</tspan></text>
  <rect x="740" y="435" width="225" height="82" rx="14" fill="#ffffff" stroke="#2563eb" stroke-width="2.4" filter="url(#softShadow)"/>
<text x="852.5" y="460.5" text-anchor="middle" dominant-baseline="middle" fill="#17376b" font-size="23" font-family="Microsoft YaHei, SimHei, Arial, sans-serif" font-weight="600"><tspan x="852.5" dy="0">工作流门控</tspan><tspan x="852.5" dy="31">边界校验/人工确认/回滚</tspan></text>
  <rect x="510" y="555" width="400" height="62" rx="14" fill="#dbeafe" stroke="#2563eb" stroke-width="2.4" filter="url(#softShadow)"/>
<text x="710" y="570.5" text-anchor="middle" dominant-baseline="middle" fill="#17376b" font-size="23" font-family="Microsoft YaHei, SimHei, Arial, sans-serif" font-weight="600"><tspan x="710" dy="0">追溯记录与评估治理</tspan><tspan x="710" dy="31">输入、上下文、工具、流程、输出全链路记录</tspan></text>
  <rect x="1130" y="125" width="260" height="72" rx="14" fill="#ffffff" stroke="#2563eb" stroke-width="2.4" filter="url(#softShadow)"/>
<text x="1260" y="145.5" text-anchor="middle" dominant-baseline="middle" fill="#17376b" font-size="23" font-family="Microsoft YaHei, SimHei, Arial, sans-serif" font-weight="600"><tspan x="1260" dy="0">当前环境目标研判</tspan><tspan x="1260" dy="31">证据链/置信度/不确定性</tspan></text>
  <rect x="1130" y="230" width="260" height="72" rx="14" fill="#ffffff" stroke="#2563eb" stroke-width="2.4" filter="url(#softShadow)"/>
<text x="1260" y="250.5" text-anchor="middle" dominant-baseline="middle" fill="#17376b" font-size="23" font-family="Microsoft YaHei, SimHei, Arial, sans-serif" font-weight="600"><tspan x="1260" dy="0">调度与波形候选方案</tspan><tspan x="1260" dy="31">依据/约束/预期效果</tspan></text>
  <rect x="1130" y="335" width="260" height="72" rx="14" fill="#ffffff" stroke="#2563eb" stroke-width="2.4" filter="url(#softShadow)"/>
<text x="1260" y="355.5" text-anchor="middle" dominant-baseline="middle" fill="#17376b" font-size="23" font-family="Microsoft YaHei, SimHei, Arial, sans-serif" font-weight="600"><tspan x="1260" dy="0">补证与仿真请求</tspan><tspan x="1260" dy="31">只读分析/效果估计</tspan></text>
  <rect x="1130" y="440" width="260" height="72" rx="14" fill="#ffffff" stroke="#2563eb" stroke-width="2.4" filter="url(#softShadow)"/>
<text x="1260" y="460.5" text-anchor="middle" dominant-baseline="middle" fill="#17376b" font-size="23" font-family="Microsoft YaHei, SimHei, Arial, sans-serif" font-weight="600"><tspan x="1260" dy="0">受控流程请求</tspan><tspan x="1260" dy="31">参数设置/请求适配</tspan></text>
  <rect x="1130" y="545" width="260" height="72" rx="14" fill="#ffffff" stroke="#2563eb" stroke-width="2.4" filter="url(#softShadow)"/>
<text x="1260" y="565.5" text-anchor="middle" dominant-baseline="middle" fill="#17376b" font-size="23" font-family="Microsoft YaHei, SimHei, Arial, sans-serif" font-weight="600"><tspan x="1260" dy="0">经验回流</tspan><tspan x="1260" dy="31">复盘结论/长期资产</tspan></text>
  <rect x="720" y="735" width="360" height="78" rx="14" fill="#dbeafe" stroke="#2563eb" stroke-width="2.4" filter="url(#softShadow)"/>
<text x="900" y="758.5" text-anchor="middle" dominant-baseline="middle" fill="#17376b" font-size="23" font-family="Microsoft YaHei, SimHei, Arial, sans-serif" font-weight="600"><tspan x="900" dy="0">控制执行链路</tspan><tspan x="900" dy="31">真实控制下发与执行反馈</tspan></text>
  <rect x="1120" y="735" width="260" height="78" rx="14" fill="#dbeafe" stroke="#2563eb" stroke-width="2.4" filter="url(#softShadow)"/>
<text x="1250" y="758.5" text-anchor="middle" dominant-baseline="middle" fill="#17376b" font-size="23" font-family="Microsoft YaHei, SimHei, Arial, sans-serif" font-weight="600"><tspan x="1250" dy="0">显控展示</tspan><tspan x="1250" dy="31">解释、确认、反馈</tspan></text>
</svg>
