<?xml version="1.0" encoding="UTF-8"?>
<svg xmlns="http://www.w3.org/2000/svg" width="1600" height="760" viewBox="0 0 1600 760">
  <defs>
    <marker id="arrow" markerWidth="12" markerHeight="12" refX="10" refY="6" orient="auto" markerUnits="strokeWidth">
      <path d="M2,2 L10,6 L2,10 Z" fill="#2563eb"/>
    </marker>
    <filter id="softShadow" x="-8%" y="-12%" width="116%" height="128%">
      <feDropShadow dx="0" dy="4" stdDeviation="4" flood-color="#1d4ed8" flood-opacity="0.13"/>
    </filter>
  </defs>
  <rect x="0" y="0" width="1600" height="760" fill="#f8fbff"/>
  <line x1="0" y1="0" x2="0" y2="760" stroke="#e6f0ff" stroke-width="1" opacity="0.45"/>
  <line x1="80" y1="0" x2="80" y2="760" stroke="#e6f0ff" stroke-width="1" opacity="0.45"/>
  <line x1="160" y1="0" x2="160" y2="760" stroke="#e6f0ff" stroke-width="1" opacity="0.45"/>
  <line x1="240" y1="0" x2="240" y2="760" stroke="#e6f0ff" stroke-width="1" opacity="0.45"/>
  <line x1="320" y1="0" x2="320" y2="760" stroke="#e6f0ff" stroke-width="1" opacity="0.45"/>
  <line x1="400" y1="0" x2="400" y2="760" stroke="#e6f0ff" stroke-width="1" opacity="0.45"/>
  <line x1="480" y1="0" x2="480" y2="760" stroke="#e6f0ff" stroke-width="1" opacity="0.45"/>
  <line x1="560" y1="0" x2="560" y2="760" stroke="#e6f0ff" stroke-width="1" opacity="0.45"/>
  <line x1="640" y1="0" x2="640" y2="760" stroke="#e6f0ff" stroke-width="1" opacity="0.45"/>
  <line x1="720" y1="0" x2="720" y2="760" stroke="#e6f0ff" stroke-width="1" opacity="0.45"/>
  <line x1="800" y1="0" x2="800" y2="760" stroke="#e6f0ff" stroke-width="1" opacity="0.45"/>
  <line x1="880" y1="0" x2="880" y2="760" stroke="#e6f0ff" stroke-width="1" opacity="0.45"/>
  <line x1="960" y1="0" x2="960" y2="760" stroke="#e6f0ff" stroke-width="1" opacity="0.45"/>
  <line x1="1040" y1="0" x2="1040" y2="760" stroke="#e6f0ff" stroke-width="1" opacity="0.45"/>
  <line x1="1120" y1="0" x2="1120" y2="760" stroke="#e6f0ff" stroke-width="1" opacity="0.45"/>
  <line x1="1200" y1="0" x2="1200" y2="760" stroke="#e6f0ff" stroke-width="1" opacity="0.45"/>
  <line x1="1280" y1="0" x2="1280" y2="760" stroke="#e6f0ff" stroke-width="1" opacity="0.45"/>
  <line x1="1360" y1="0" x2="1360" y2="760" stroke="#e6f0ff" stroke-width="1" opacity="0.45"/>
  <line x1="1440" y1="0" x2="1440" y2="760" stroke="#e6f0ff" stroke-width="1" opacity="0.45"/>
  <line x1="1520" y1="0" x2="1520" y2="760" stroke="#e6f0ff" stroke-width="1" opacity="0.45"/>
  <line x1="1600" y1="0" x2="1600" y2="760" stroke="#e6f0ff" stroke-width="1" opacity="0.45"/>
  <line x1="0" y1="0" x2="1600" y2="0" stroke="#e6f0ff" stroke-width="1" opacity="0.45"/>
  <line x1="0" y1="80" x2="1600" y2="80" stroke="#e6f0ff" stroke-width="1" opacity="0.45"/>
  <line x1="0" y1="160" x2="1600" y2="160" stroke="#e6f0ff" stroke-width="1" opacity="0.45"/>
  <line x1="0" y1="240" x2="1600" y2="240" stroke="#e6f0ff" stroke-width="1" opacity="0.45"/>
  <line x1="0" y1="320" x2="1600" y2="320" stroke="#e6f0ff" stroke-width="1" opacity="0.45"/>
  <line x1="0" y1="400" x2="1600" y2="400" stroke="#e6f0ff" stroke-width="1" opacity="0.45"/>
  <line x1="0" y1="480" x2="1600" y2="480" stroke="#e6f0ff" stroke-width="1" opacity="0.45"/>
  <line x1="0" y1="560" x2="1600" y2="560" stroke="#e6f0ff" stroke-width="1" opacity="0.45"/>
  <line x1="0" y1="640" x2="1600" y2="640" stroke="#e6f0ff" stroke-width="1" opacity="0.45"/>
  <line x1="0" y1="720" x2="1600" y2="720" stroke="#e6f0ff" stroke-width="1" opacity="0.45"/>
  <rect x="30" y="30" width="1540" height="700" rx="26" fill="none" stroke="#bfdbfe" stroke-width="2"/>
  <line x1="220" y1="312" x2="265" y2="312" stroke="#2563eb" stroke-width="3" marker-end="url(#arrow)" opacity="0.9"/>
  <line x1="435" y1="312" x2="480" y2="312" stroke="#2563eb" stroke-width="3" marker-end="url(#arrow)" opacity="0.9"/>
  <line x1="650" y1="312" x2="695" y2="312" stroke="#2563eb" stroke-width="3" marker-end="url(#arrow)" opacity="0.9"/>
  <line x1="865" y1="312" x2="910" y2="312" stroke="#2563eb" stroke-width="3" marker-end="url(#arrow)" opacity="0.9"/>
  <line x1="1080" y1="312" x2="1125" y2="312" stroke="#2563eb" stroke-width="3" marker-end="url(#arrow)" opacity="0.9"/>
  <line x1="1295" y1="312" x2="1340" y2="312" stroke="#2563eb" stroke-width="3" marker-end="url(#arrow)" opacity="0.9"/>
  <path d="M 1340 312 L 1127.5 312 L 1127.5 639 L 915 639" fill="none" stroke="#2563eb" stroke-width="3" marker-end="url(#arrow)" stroke-linejoin="round" opacity="0.9"/>
  <path d="M 785 610 L 675 610 L 675 354 L 565 354" fill="none" stroke="#2563eb" stroke-width="3" marker-end="url(#arrow)" stroke-linejoin="round" opacity="0.9"/>
  <line x1="790" y1="180" x2="780" y2="270" stroke="#2563eb" stroke-width="3" marker-end="url(#arrow)" opacity="0.9"/>
  <path d="M 995 354 L 892.5 354 L 892.5 500 L 790 500" fill="none" stroke="#2563eb" stroke-width="3" marker-end="url(#arrow)" stroke-linejoin="round" opacity="0.9"/>
  <path d="M 1125 312 L 1227.5 312 L 1227.5 535 L 1330 535" fill="none" stroke="#2563eb" stroke-width="3" marker-end="url(#arrow)" stroke-linejoin="round" opacity="0.9"/>
  <rect x="70" y="270" width="150" height="84" rx="14" fill="#ffffff" stroke="#2563eb" stroke-width="2.4" filter="url(#softShadow)"/>
<text x="145" y="297.5" text-anchor="middle" dominant-baseline="middle" fill="#17376b" font-size="21" font-family="Microsoft YaHei, SimHei, Arial, sans-serif" font-weight="600"><tspan x="145" dy="0">触发接入</tspan><tspan x="145" dy="29">指令/事件/告警</tspan></text>
  <rect x="265" y="270" width="170" height="84" rx="14" fill="#ffffff" stroke="#2563eb" stroke-width="2.4" filter="url(#softShadow)"/>
<text x="350" y="297.5" text-anchor="middle" dominant-baseline="middle" fill="#17376b" font-size="21" font-family="Microsoft YaHei, SimHei, Arial, sans-serif" font-weight="600"><tspan x="350" dy="0">任务实例化</tspan><tspan x="350" dy="29">编号/对象/窗口</tspan></text>
  <rect x="480" y="270" width="170" height="84" rx="14" fill="#ffffff" stroke="#2563eb" stroke-width="2.4" filter="url(#softShadow)"/>
<text x="565" y="297.5" text-anchor="middle" dominant-baseline="middle" fill="#17376b" font-size="21" font-family="Microsoft YaHei, SimHei, Arial, sans-serif" font-weight="600"><tspan x="565" dy="0">上下文装载</tspan><tspan x="565" dy="29">证据/约束/版本</tspan></text>
  <rect x="695" y="270" width="170" height="84" rx="14" fill="#ffffff" stroke="#2563eb" stroke-width="2.4" filter="url(#softShadow)"/>
<text x="780" y="297.5" text-anchor="middle" dominant-baseline="middle" fill="#17376b" font-size="21" font-family="Microsoft YaHei, SimHei, Arial, sans-serif" font-weight="600"><tspan x="780" dy="0">能力路由</tspan><tspan x="780" dy="29">只读/工具/工作流</tspan></text>
  <rect x="910" y="270" width="170" height="84" rx="14" fill="#ecfeff" stroke="#2563eb" stroke-width="2.4" filter="url(#softShadow)"/>
<text x="995" y="297.5" text-anchor="middle" dominant-baseline="middle" fill="#17376b" font-size="21" font-family="Microsoft YaHei, SimHei, Arial, sans-serif" font-weight="600"><tspan x="995" dy="0">模型与 Skills</tspan><tspan x="995" dy="29">推理/生成/校验</tspan></text>
  <rect x="1125" y="270" width="170" height="84" rx="14" fill="#ffffff" stroke="#2563eb" stroke-width="2.4" filter="url(#softShadow)"/>
<text x="1210" y="297.5" text-anchor="middle" dominant-baseline="middle" fill="#17376b" font-size="21" font-family="Microsoft YaHei, SimHei, Arial, sans-serif" font-weight="600"><tspan x="1210" dy="0">工具/流程执行</tspan><tspan x="1210" dy="29">查询/仿真/确认</tspan></text>
  <rect x="1340" y="270" width="170" height="84" rx="14" fill="#ffffff" stroke="#2563eb" stroke-width="2.4" filter="url(#softShadow)"/>
<text x="1425" y="297.5" text-anchor="middle" dominant-baseline="middle" fill="#17376b" font-size="21" font-family="Microsoft YaHei, SimHei, Arial, sans-serif" font-weight="600"><tspan x="1425" dy="0">结果发布</tspan><tspan x="1425" dy="29">展示/请求/记录</tspan></text>
  <rect x="250" y="110" width="1080" height="70" rx="14" fill="#eff6ff" stroke="#2563eb" stroke-width="2.4" filter="url(#softShadow)"/>
<text x="790" y="145" text-anchor="middle" dominant-baseline="middle" fill="#17376b" font-size="23" font-family="Microsoft YaHei, SimHei, Arial, sans-serif" font-weight="600"><tspan x="790" dy="0">横向运行治理：状态管理、上下文版本控制、权限约束、超时重试、异常恢复</tspan></text>
  <rect x="250" y="500" width="1080" height="70" rx="14" fill="#eff6ff" stroke="#2563eb" stroke-width="2.4" filter="url(#softShadow)"/>
<text x="790" y="535" text-anchor="middle" dominant-baseline="middle" fill="#17376b" font-size="23" font-family="Microsoft YaHei, SimHei, Arial, sans-serif" font-weight="600"><tspan x="790" dy="0">全过程观测追溯：模型输入输出、工具结果、工作流节点、人工反馈、评估指标</tspan></text>
  <rect x="655" y="610" width="260" height="58" rx="14" fill="#dbeafe" stroke="#2563eb" stroke-width="2.4" filter="url(#softShadow)"/>
<text x="785" y="623.5" text-anchor="middle" dominant-baseline="middle" fill="#17376b" font-size="23" font-family="Microsoft YaHei, SimHei, Arial, sans-serif" font-weight="600"><tspan x="785" dy="0">归档复盘与记忆回流</tspan><tspan x="785" dy="31">短期 -&gt; 中期 -&gt; 长期</tspan></text>
</svg>
