<?xml version="1.0" encoding="UTF-8"?>
<svg xmlns="http://www.w3.org/2000/svg" width="1600" height="900" viewBox="0 0 1600 900">
  <defs>
    <marker id="arrow" markerWidth="12" markerHeight="12" refX="10" refY="6" orient="auto" markerUnits="strokeWidth">
      <path d="M2,2 L10,6 L2,10 Z" fill="#2563eb"/>
    </marker>
    <filter id="softShadow" x="-8%" y="-12%" width="116%" height="128%">
      <feDropShadow dx="0" dy="4" stdDeviation="4" flood-color="#1d4ed8" flood-opacity="0.13"/>
    </filter>
  </defs>
  <rect x="0" y="0" width="1600" height="900" fill="#f8fbff"/>
  <line x1="0" y1="0" x2="0" y2="900" stroke="#e6f0ff" stroke-width="1" opacity="0.45"/>
  <line x1="80" y1="0" x2="80" y2="900" stroke="#e6f0ff" stroke-width="1" opacity="0.45"/>
  <line x1="160" y1="0" x2="160" y2="900" stroke="#e6f0ff" stroke-width="1" opacity="0.45"/>
  <line x1="240" y1="0" x2="240" y2="900" stroke="#e6f0ff" stroke-width="1" opacity="0.45"/>
  <line x1="320" y1="0" x2="320" y2="900" stroke="#e6f0ff" stroke-width="1" opacity="0.45"/>
  <line x1="400" y1="0" x2="400" y2="900" stroke="#e6f0ff" stroke-width="1" opacity="0.45"/>
  <line x1="480" y1="0" x2="480" y2="900" stroke="#e6f0ff" stroke-width="1" opacity="0.45"/>
  <line x1="560" y1="0" x2="560" y2="900" stroke="#e6f0ff" stroke-width="1" opacity="0.45"/>
  <line x1="640" y1="0" x2="640" y2="900" stroke="#e6f0ff" stroke-width="1" opacity="0.45"/>
  <line x1="720" y1="0" x2="720" y2="900" stroke="#e6f0ff" stroke-width="1" opacity="0.45"/>
  <line x1="800" y1="0" x2="800" y2="900" stroke="#e6f0ff" stroke-width="1" opacity="0.45"/>
  <line x1="880" y1="0" x2="880" y2="900" stroke="#e6f0ff" stroke-width="1" opacity="0.45"/>
  <line x1="960" y1="0" x2="960" y2="900" stroke="#e6f0ff" stroke-width="1" opacity="0.45"/>
  <line x1="1040" y1="0" x2="1040" y2="900" stroke="#e6f0ff" stroke-width="1" opacity="0.45"/>
  <line x1="1120" y1="0" x2="1120" y2="900" stroke="#e6f0ff" stroke-width="1" opacity="0.45"/>
  <line x1="1200" y1="0" x2="1200" y2="900" stroke="#e6f0ff" stroke-width="1" opacity="0.45"/>
  <line x1="1280" y1="0" x2="1280" y2="900" stroke="#e6f0ff" stroke-width="1" opacity="0.45"/>
  <line x1="1360" y1="0" x2="1360" y2="900" stroke="#e6f0ff" stroke-width="1" opacity="0.45"/>
  <line x1="1440" y1="0" x2="1440" y2="900" stroke="#e6f0ff" stroke-width="1" opacity="0.45"/>
  <line x1="1520" y1="0" x2="1520" y2="900" stroke="#e6f0ff" stroke-width="1" opacity="0.45"/>
  <line x1="1600" y1="0" x2="1600" y2="900" stroke="#e6f0ff" stroke-width="1" opacity="0.45"/>
  <line x1="0" y1="0" x2="1600" y2="0" stroke="#e6f0ff" stroke-width="1" opacity="0.45"/>
  <line x1="0" y1="80" x2="1600" y2="80" stroke="#e6f0ff" stroke-width="1" opacity="0.45"/>
  <line x1="0" y1="160" x2="1600" y2="160" stroke="#e6f0ff" stroke-width="1" opacity="0.45"/>
  <line x1="0" y1="240" x2="1600" y2="240" stroke="#e6f0ff" stroke-width="1" opacity="0.45"/>
  <line x1="0" y1="320" x2="1600" y2="320" stroke="#e6f0ff" stroke-width="1" opacity="0.45"/>
  <line x1="0" y1="400" x2="1600" y2="400" stroke="#e6f0ff" stroke-width="1" opacity="0.45"/>
  <line x1="0" y1="480" x2="1600" y2="480" stroke="#e6f0ff" stroke-width="1" opacity="0.45"/>
  <line x1="0" y1="560" x2="1600" y2="560" stroke="#e6f0ff" stroke-width="1" opacity="0.45"/>
  <line x1="0" y1="640" x2="1600" y2="640" stroke="#e6f0ff" stroke-width="1" opacity="0.45"/>
  <line x1="0" y1="720" x2="1600" y2="720" stroke="#e6f0ff" stroke-width="1" opacity="0.45"/>
  <line x1="0" y1="800" x2="1600" y2="800" stroke="#e6f0ff" stroke-width="1" opacity="0.45"/>
  <line x1="0" y1="880" x2="1600" y2="880" stroke="#e6f0ff" stroke-width="1" opacity="0.45"/>
  <rect x="30" y="30" width="1540" height="840" rx="26" fill="none" stroke="#bfdbfe" stroke-width="2"/>
  <line x1="310" y1="133" x2="460" y2="355" stroke="#2563eb" stroke-width="3" marker-end="url(#arrow)" opacity="0.9"/>
  <line x1="310" y1="243" x2="460" y2="355" stroke="#2563eb" stroke-width="3" marker-end="url(#arrow)" opacity="0.9"/>
  <line x1="310" y1="353" x2="460" y2="355" stroke="#2563eb" stroke-width="3" marker-end="url(#arrow)" opacity="0.9"/>
  <line x1="310" y1="463" x2="460" y2="355" stroke="#2563eb" stroke-width="3" marker-end="url(#arrow)" opacity="0.9"/>
  <line x1="310" y1="573" x2="460" y2="355" stroke="#2563eb" stroke-width="3" marker-end="url(#arrow)" opacity="0.9"/>
  <line x1="610" y1="520" x2="610" y2="590" stroke="#2563eb" stroke-width="3" marker-end="url(#arrow)" opacity="0.9"/>
  <line x1="760" y1="355" x2="915" y2="335" stroke="#2563eb" stroke-width="3" marker-end="url(#arrow)" opacity="0.9"/>
  <line x1="765" y1="627.5" x2="915" y2="335" stroke="#2563eb" stroke-width="3" marker-end="url(#arrow)" opacity="0.9"/>
  <line x1="1080" y1="545" x2="1132.5" y2="650" stroke="#2563eb" stroke-width="3" marker-end="url(#arrow)" opacity="0.9"/>
  <line x1="1255" y1="694" x2="1340" y2="694" stroke="#2563eb" stroke-width="3" marker-end="url(#arrow)" opacity="0.9"/>
  <path d="M 1340 694 L 1052.5 694 L 1052.5 627.5 L 765 627.5" fill="none" stroke="#2563eb" stroke-width="3" marker-end="url(#arrow)" stroke-linejoin="round" opacity="0.9"/>
  <rect x="80" y="95" width="230" height="76" rx="14" fill="#ffffff" stroke="#2563eb" stroke-width="2.4" filter="url(#softShadow)"/>
<text x="195" y="117.5" text-anchor="middle" dominant-baseline="middle" fill="#17376b" font-size="23" font-family="Microsoft YaHei, SimHei, Arial, sans-serif" font-weight="600"><tspan x="195" dy="0">当前任务上下文</tspan><tspan x="195" dy="31">目标/区域/时间窗口</tspan></text>
  <rect x="80" y="205" width="230" height="76" rx="14" fill="#ffffff" stroke="#2563eb" stroke-width="2.4" filter="url(#softShadow)"/>
<text x="195" y="227.5" text-anchor="middle" dominant-baseline="middle" fill="#17376b" font-size="23" font-family="Microsoft YaHei, SimHei, Arial, sans-serif" font-weight="600"><tspan x="195" dy="0">感知证据</tspan><tspan x="195" dy="31">检测/识别/跟踪/定位</tspan></text>
  <rect x="80" y="315" width="230" height="76" rx="14" fill="#ffffff" stroke="#2563eb" stroke-width="2.4" filter="url(#softShadow)"/>
<text x="195" y="337.5" text-anchor="middle" dominant-baseline="middle" fill="#17376b" font-size="23" font-family="Microsoft YaHei, SimHei, Arial, sans-serif" font-weight="600"><tspan x="195" dy="0">状态与约束</tspan><tspan x="195" dy="31">模式/资源/参数边界</tspan></text>
  <rect x="80" y="425" width="230" height="76" rx="14" fill="#ffffff" stroke="#2563eb" stroke-width="2.4" filter="url(#softShadow)"/>
<text x="195" y="447.5" text-anchor="middle" dominant-baseline="middle" fill="#17376b" font-size="23" font-family="Microsoft YaHei, SimHei, Arial, sans-serif" font-weight="600"><tspan x="195" dy="0">知识与经验</tspan><tspan x="195" dy="31">案例/策略/专业规则</tspan></text>
  <rect x="80" y="535" width="230" height="76" rx="14" fill="#ffffff" stroke="#2563eb" stroke-width="2.4" filter="url(#softShadow)"/>
<text x="195" y="557.5" text-anchor="middle" dominant-baseline="middle" fill="#17376b" font-size="23" font-family="Microsoft YaHei, SimHei, Arial, sans-serif" font-weight="600"><tspan x="195" dy="0">输出约束</tspan><tspan x="195" dy="31">结论/方案/补证/流程</tspan></text>
  <rect x="460" y="190" width="300" height="330" rx="14" fill="#eff6ff" stroke="#2563eb" stroke-width="2.4" filter="url(#softShadow)"/>
<text x="610" y="277.5" text-anchor="middle" dominant-baseline="middle" fill="#17376b" font-size="23" font-family="Microsoft YaHei, SimHei, Arial, sans-serif" font-weight="600"><tspan x="610" dy="0">上下文装配器</tspan><tspan x="610" dy="31"></tspan><tspan x="610" dy="31">证据选择</tspan><tspan x="610" dy="31">质量标识</tspan><tspan x="610" dy="31">约束注入</tspan><tspan x="610" dy="31">版本固化</tspan></text>
  <rect x="455" y="590" width="310" height="75" rx="14" fill="#dbeafe" stroke="#2563eb" stroke-width="2.4" filter="url(#softShadow)"/>
<text x="610" y="612" text-anchor="middle" dominant-baseline="middle" fill="#17376b" font-size="23" font-family="Microsoft YaHei, SimHei, Arial, sans-serif" font-weight="600"><tspan x="610" dy="0">质量标签</tspan><tspan x="610" dy="31">缺失 / 冲突 / 过期 / 低置信 / 版本不一致</tspan></text>
  <rect x="915" y="125" width="330" height="420" rx="14" fill="#ffffff" stroke="#2563eb" stroke-width="2.4" filter="url(#softShadow)"/>
<text x="1080" y="257.5" text-anchor="middle" dominant-baseline="middle" fill="#17376b" font-size="23" font-family="Microsoft YaHei, SimHei, Arial, sans-serif" font-weight="600"><tspan x="1080" dy="0">任务上下文包</tspan><tspan x="1080" dy="31"></tspan><tspan x="1080" dy="31">1 当前任务层</tspan><tspan x="1080" dy="31">2 状态约束层</tspan><tspan x="1080" dy="31">3 知识经验层</tspan><tspan x="1080" dy="31">4 输出约束层</tspan></text>
  <rect x="1010" y="650" width="245" height="88" rx="14" fill="#ecfeff" stroke="#2563eb" stroke-width="2.4" filter="url(#softShadow)"/>
<text x="1132.5" y="678.5" text-anchor="middle" dominant-baseline="middle" fill="#17376b" font-size="23" font-family="Microsoft YaHei, SimHei, Arial, sans-serif" font-weight="600"><tspan x="1132.5" dy="0">LLM + 雷达 Skills</tspan><tspan x="1132.5" dy="31">基于证据推理</tspan></text>
  <rect x="1340" y="640" width="205" height="108" rx="14" fill="#ffffff" stroke="#2563eb" stroke-width="2.4" filter="url(#softShadow)"/>
<text x="1442.5" y="663" text-anchor="middle" dominant-baseline="middle" fill="#17376b" font-size="23" font-family="Microsoft YaHei, SimHei, Arial, sans-serif" font-weight="600"><tspan x="1442.5" dy="0">结构化输出</tspan><tspan x="1442.5" dy="31">事实 / 判断 / 依据</tspan><tspan x="1442.5" dy="31">风险 / 不确定性</tspan></text>
</svg>
