<svg xmlns="http://www.w3.org/2000/svg" width="1600" height="920" viewBox="0 0 1600 920">
<defs><marker id="arrow" markerWidth="10" markerHeight="10" refX="9" refY="3" orient="auto" markerUnits="strokeWidth"><path d="M0,0 L0,6 L9,3 z" fill="#52616f"/></marker><filter id="shadow" x="-10%" y="-10%" width="120%" height="130%"><feDropShadow dx="0" dy="2" stdDeviation="2" flood-color="#1f2937" flood-opacity="0.12"/></filter></defs>
<rect width="100%" height="100%" fill="#fbfcfe"/>
<text x="42" y="58" font-size="30" font-weight="700" fill="#1f4e79">图B 调度、波形参数设置与目标研判联动图</text>
<path d="M 110,335 L 535,335 L 535,505 L 1050,505" fill="none" stroke="#52616f" stroke-width="3" stroke-linejoin="round" marker-end="url(#arrow)"/>
<path d="M 785,149 L 785,363 L 795,363 L 795,580" fill="none" stroke="#52616f" stroke-width="3" stroke-linejoin="round" marker-end="url(#arrow)"/>
<path d="M 1440,335 L 1035,335 L 1035,505 L 540,505" fill="none" stroke="#52616f" stroke-width="3" stroke-linejoin="round" marker-end="url(#arrow)"/>
<path d="M 1050,505 L 535,505 L 535,335 L 110,335" fill="none" stroke="#52616f" stroke-width="3" stroke-linejoin="round" marker-end="url(#arrow)"/>
<rect x="467" y="319" width="136" height="28" rx="7" fill="#fbfcfe" stroke="#d6dee8"/>
<text x="535" y="340" text-anchor="middle" font-size="15" fill="#64748b">补证/解释</text>
<path d="M 795,580 L 795,363 L 785,363 L 785,149" fill="none" stroke="#52616f" stroke-width="3" stroke-linejoin="round" marker-end="url(#arrow)"/>
<rect x="717" y="347" width="136" height="28" rx="7" fill="#fbfcfe" stroke="#d6dee8"/>
<text x="785" y="368" text-anchor="middle" font-size="15" fill="#64748b">资源约束</text>
<path d="M 540,505 L 1035,505 L 1035,335 L 1440,335" fill="none" stroke="#52616f" stroke-width="3" stroke-linejoin="round" marker-end="url(#arrow)"/>
<rect x="967" y="319" width="136" height="28" rx="7" fill="#fbfcfe" stroke="#d6dee8"/>
<text x="1035" y="340" text-anchor="middle" font-size="15" fill="#64748b">候选方案</text>
<path d="M 310,720 L 310,502 L 275,502 L 275,260" fill="none" stroke="#52616f" stroke-width="3" stroke-linejoin="round" marker-end="url(#arrow)"/>
<path d="M 180,670 L 552,670 L 552,505 L 1050,505" fill="none" stroke="#52616f" stroke-width="3" stroke-linejoin="round" marker-end="url(#arrow)"/>
<path d="M 800,750 L 800,602 L 795,602 L 795,430" fill="none" stroke="#52616f" stroke-width="3" stroke-linejoin="round" marker-end="url(#arrow)"/>
<path d="M 540,505 L 1030,505 L 1030,670 L 1410,670" fill="none" stroke="#52616f" stroke-width="3" stroke-linejoin="round" marker-end="url(#arrow)"/>
<rect x="962" y="654" width="136" height="28" rx="7" fill="#fbfcfe" stroke="#d6dee8"/>
<text x="1030" y="675" text-anchor="middle" font-size="15" fill="#64748b">审批请求</text>
<path d="M 1265,720 L 1265,502 L 1275,502 L 1275,260" fill="none" stroke="#52616f" stroke-width="3" stroke-linejoin="round" marker-end="url(#arrow)"/>
<rect x="1207" y="486" width="136" height="28" rx="7" fill="#fbfcfe" stroke="#d6dee8"/>
<text x="1275" y="507" text-anchor="middle" font-size="15" fill="#64748b">执行回传</text>
<rect x="110" y="260" width="330" height="150" rx="10" fill="#dbeafe" stroke="#1f4e79" stroke-width="2" filter="url(#shadow)"/>
<text x="275.0" y="314.0" text-anchor="middle" font-size="24" font-weight="700" fill="#1f2937">当前环境目标研判</text>
<text x="275.0" y="344.0" text-anchor="middle" font-size="24" font-weight="700" fill="#1f2937">目标类别 / 行为特征 / 威胁等级 /</text>
<text x="275.0" y="374.0" text-anchor="middle" font-size="24" font-weight="700" fill="#1f2937">证据缺口</text>
<rect x="620" y="150" width="330" height="145" rx="10" fill="#d8f3f0" stroke="#2a7f7f" stroke-width="2" filter="url(#shadow)"/>
<text x="785.0" y="216.5" text-anchor="middle" font-size="24" font-weight="700" fill="#1f2937">智能雷达调度</text>
<text x="785.0" y="246.5" text-anchor="middle" font-size="24" font-weight="700" fill="#1f2937">工作模式 / 波束资源 / 跟踪策略</text>
<rect x="1110" y="260" width="330" height="150" rx="10" fill="#fff1cc" stroke="#b7791f" stroke-width="2" filter="url(#shadow)"/>
<text x="1275.0" y="329.0" text-anchor="middle" font-size="24" font-weight="700" fill="#1f2937">波形参数设置建议</text>
<text x="1275.0" y="359.0" text-anchor="middle" font-size="24" font-weight="700" fill="#1f2937">波形 / 门限 / 参数版本 / 回滚条件</text>
<rect x="540" y="430" width="510" height="150" rx="10" fill="#eee7ff" stroke="#7353a4" stroke-width="2" filter="url(#shadow)"/>
<text x="795.0" y="499.0" text-anchor="middle" font-size="24" font-weight="700" fill="#1f2937">LD智能体任务空间</text>
<text x="795.0" y="529.0" text-anchor="middle" font-size="24" font-weight="700" fill="#1f2937">任务实例、上下文、证据链、能力包、追溯编号</text>
<rect x="180" y="620" width="260" height="100" rx="10" fill="#f1f5f9" stroke="#7b8794" stroke-width="2" filter="url(#shadow)"/>
<text x="310.0" y="679.0" text-anchor="middle" font-size="24" font-weight="400" fill="#1f2937">感知结果与雷达状态</text>
<rect x="650" y="650" width="300" height="100" rx="10" fill="#e5f4df" stroke="#4f7d4a" stroke-width="2" filter="url(#shadow)"/>
<text x="800.0" y="709.0" text-anchor="middle" font-size="24" font-weight="400" fill="#1f2937">数据知识底座与历史经验</text>
<rect x="1120" y="620" width="290" height="100" rx="10" fill="#fde2e2" stroke="#b44747" stroke-width="2" filter="url(#shadow)"/>
<text x="1265.0" y="679.0" text-anchor="middle" font-size="24" font-weight="400" fill="#1f2937">显控确认与控制执行链路</text>
<text x="42" y="878" font-size="18" fill="#64748b">三类业务不是孤立能力，而是围绕同一任务实例共享证据、约束、候选方案和反馈结果。</text>
</svg>