<svg xmlns="http://www.w3.org/2000/svg" width="1700" height="980" viewBox="0 0 1700 980">
<defs><marker id="arrow" markerWidth="10" markerHeight="10" refX="9" refY="3" orient="auto" markerUnits="strokeWidth"><path d="M0,0 L0,6 L9,3 z" fill="#52616f"/></marker><filter id="shadow" x="-10%" y="-10%" width="120%" height="130%"><feDropShadow dx="0" dy="2" stdDeviation="2" flood-color="#1f2937" flood-opacity="0.12"/></filter></defs>
<rect width="100%" height="100%" fill="#fbfcfe"/>
<text x="42" y="58" font-size="30" font-weight="700" fill="#1f4e79">图4.3.3.2-1 LD智能体子系统工作原理图</text>
<path d="M 80,232 L 530,232 L 530,255 L 1210,255" fill="none" stroke="#52616f" stroke-width="3" stroke-linejoin="round" marker-end="url(#arrow)"/>
<path d="M 80,382 L 530,382 L 530,255 L 1210,255" fill="none" stroke="#52616f" stroke-width="3" stroke-linejoin="round" marker-end="url(#arrow)"/>
<path d="M 80,532 L 530,532 L 530,255 L 1210,255" fill="none" stroke="#52616f" stroke-width="3" stroke-linejoin="round" marker-end="url(#arrow)"/>
<path d="M 80,682 L 530,682 L 530,745 L 1060,745" fill="none" stroke="#52616f" stroke-width="3" stroke-linejoin="round" marker-end="url(#arrow)"/>
<path d="M 1210,255 L 750,255 L 750,402 L 500,402" fill="none" stroke="#52616f" stroke-width="3" stroke-linejoin="round" marker-end="url(#arrow)"/>
<path d="M 500,402 L 855,402 L 855,402 L 1210,402" fill="none" stroke="#52616f" stroke-width="3" stroke-linejoin="round" marker-end="url(#arrow)" marker-start="url(#arrow)"/>
<path d="M 645,349 L 645,497 L 645,497 L 645,644" fill="none" stroke="#52616f" stroke-width="3" stroke-linejoin="round" marker-end="url(#arrow)"/>
<path d="M 500,402 L 855,402 L 855,592 L 1210,592" fill="none" stroke="#52616f" stroke-width="3" stroke-linejoin="round" marker-end="url(#arrow)"/>
<path d="M 500,592 L 750,592 L 750,745 L 1060,745" fill="none" stroke="#52616f" stroke-width="3" stroke-linejoin="round" marker-end="url(#arrow)" marker-start="url(#arrow)"/>
<path d="M 1210,592 L 960,592 L 960,745 L 650,745" fill="none" stroke="#52616f" stroke-width="3" stroke-linejoin="round" marker-end="url(#arrow)" marker-start="url(#arrow)"/>
<path d="M 1065,349 L 1065,573 L 855,573 L 855,790" fill="none" stroke="#52616f" stroke-width="3" stroke-linejoin="round" marker-end="url(#arrow)" marker-start="url(#arrow)"/>
<path d="M 500,592 L 1085,592 L 1085,407 L 1650,407" fill="none" stroke="#52616f" stroke-width="3" stroke-linejoin="round" marker-end="url(#arrow)"/>
<rect x="1017" y="391" width="136" height="28" rx="7" fill="#fbfcfe" stroke="#d6dee8"/>
<text x="1085" y="412" text-anchor="middle" font-size="15" fill="#64748b">经审批控制请求</text>
<path d="M 1650,407 L 1085,407 L 1085,592 L 500,592" fill="none" stroke="#52616f" stroke-width="3" stroke-linejoin="round" marker-end="url(#arrow)"/>
<rect x="1017" y="576" width="136" height="28" rx="7" fill="#fbfcfe" stroke="#d6dee8"/>
<text x="1085" y="597" text-anchor="middle" font-size="15" fill="#64748b">执行状态</text>
<path d="M 500,255 L 1190,255 L 1190,627 L 1650,627" fill="none" stroke="#52616f" stroke-width="3" stroke-linejoin="round" marker-end="url(#arrow)"/>
<path d="M 920,592 L 1295,592 L 1295,627 L 1650,627" fill="none" stroke="#52616f" stroke-width="3" stroke-linejoin="round" marker-end="url(#arrow)"/>
<path d="M 500,402 L 1085,402 L 1085,627 L 1650,627" fill="none" stroke="#52616f" stroke-width="3" stroke-linejoin="round" marker-end="url(#arrow)"/>
<rect x="80" y="180" width="250" height="105" rx="10" fill="#dbeafe" stroke="#1f4e79" stroke-width="2" filter="url(#shadow)"/>
<text x="205.0" y="226.5" text-anchor="middle" font-size="24" font-weight="400" fill="#1f2937">显控分系统</text>
<text x="205.0" y="256.5" text-anchor="middle" font-size="24" font-weight="400" fill="#1f2937">自然语言/目标/区域/审批</text>
<rect x="80" y="330" width="250" height="105" rx="10" fill="#dbeafe" stroke="#1f4e79" stroke-width="2" filter="url(#shadow)"/>
<text x="205.0" y="376.5" text-anchor="middle" font-size="24" font-weight="400" fill="#1f2937">信息处理感知子系统</text>
<text x="205.0" y="406.5" text-anchor="middle" font-size="24" font-weight="400" fill="#1f2937">检测/识别/跟踪/定位</text>
<rect x="80" y="480" width="250" height="105" rx="10" fill="#dbeafe" stroke="#1f4e79" stroke-width="2" filter="url(#shadow)"/>
<text x="205.0" y="526.5" text-anchor="middle" font-size="24" font-weight="400" fill="#1f2937">雷达状态与环境数据</text>
<text x="205.0" y="556.5" text-anchor="middle" font-size="24" font-weight="400" fill="#1f2937">模式/参数/资源/环境</text>
<rect x="80" y="638" width="250" height="97" rx="8" fill="#e5f4df" stroke="#4f7d4a" stroke-width="2" filter="url(#shadow)"/>
<ellipse cx="205.0" cy="639" rx="125.0" ry="9" fill="#e5f4df" stroke="#4f7d4a" stroke-width="2"/>
<text x="205.0" y="676.5" text-anchor="middle" font-size="24" font-weight="400" fill="#1f2937">数据知识底座</text>
<text x="205.0" y="706.5" text-anchor="middle" font-size="24" font-weight="400" fill="#1f2937">关系/向量/图/时序</text>
<rect x="430" y="130" width="850" height="690" rx="10" fill="#f1f5f9" stroke="#1f4e79" stroke-width="2" filter="url(#shadow)"/>
<rect x="430" y="130" width="850" height="36" rx="10" fill="#1f4e79"/>
<text x="444" y="154" font-size="17" font-weight="700" fill="#fff">LD智能体子系统边界</text>
<text x="855.0" y="504.2" text-anchor="middle" font-size="22" font-weight="700" fill="#1f2937">运行底座贯穿任务、上下文、权限、安全门控和追溯治理</text>
<rect x="500" y="210" width="710" height="90" rx="10" fill="#d8f3f0" stroke="#2a7f7f" stroke-width="2" filter="url(#shadow)"/>
<text x="855.0" y="249.0" text-anchor="middle" font-size="24" font-weight="700" fill="#1f2937">运行底座</text>
<text x="855.0" y="279.0" text-anchor="middle" font-size="24" font-weight="700" fill="#1f2937">任务实例/上下文/能力包/追溯</text>
<rect x="500" y="350" width="290" height="105" rx="10" fill="#eee7ff" stroke="#7353a4" stroke-width="2" filter="url(#shadow)"/>
<text x="645.0" y="396.5" text-anchor="middle" font-size="24" font-weight="700" fill="#1f2937">认知核心模块</text>
<text x="645.0" y="426.5" text-anchor="middle" font-size="24" font-weight="700" fill="#1f2937">意图理解/推理规划/结果生成</text>
<rect x="920" y="350" width="290" height="105" rx="10" fill="#dbeafe" stroke="#1f4e79" stroke-width="2" filter="url(#shadow)"/>
<text x="1065.0" y="396.5" text-anchor="middle" font-size="24" font-weight="700" fill="#1f2937">记忆管理模块</text>
<text x="1065.0" y="426.5" text-anchor="middle" font-size="24" font-weight="700" fill="#1f2937">短期/中期/长期经验</text>
<rect x="500" y="540" width="290" height="105" rx="10" fill="#fff1cc" stroke="#b7791f" stroke-width="2" filter="url(#shadow)"/>
<text x="645.0" y="586.5" text-anchor="middle" font-size="24" font-weight="700" fill="#1f2937">工具执行模块</text>
<text x="645.0" y="616.5" text-anchor="middle" font-size="24" font-weight="700" fill="#1f2937">工具代理/协议适配/监控</text>
<rect x="920" y="540" width="290" height="105" rx="10" fill="#e5f4df" stroke="#4f7d4a" stroke-width="2" filter="url(#shadow)"/>
<text x="1065.0" y="586.5" text-anchor="middle" font-size="24" font-weight="700" fill="#1f2937">工作流引擎模块</text>
<text x="1065.0" y="616.5" text-anchor="middle" font-size="24" font-weight="700" fill="#1f2937">模板/检查点/审批/回滚</text>
<rect x="650" y="700" width="410" height="90" rx="10" fill="#f1f5f9" stroke="#7b8794" stroke-width="2" filter="url(#shadow)"/>
<text x="855.0" y="739.0" text-anchor="middle" font-size="24" font-weight="700" fill="#1f2937">数据库管理与接入模块</text>
<text x="855.0" y="769.0" text-anchor="middle" font-size="24" font-weight="700" fill="#1f2937">关系/向量/图/时序统一访问</text>
<rect x="1400" y="350" width="250" height="115" rx="10" fill="#fde2e2" stroke="#b44747" stroke-width="2" filter="url(#shadow)"/>
<text x="1525.0" y="401.5" text-anchor="middle" font-size="24" font-weight="700" fill="#1f2937">控制执行链路</text>
<text x="1525.0" y="431.5" text-anchor="middle" font-size="24" font-weight="700" fill="#1f2937">波形/波束/门限/跟踪参数</text>
<rect x="1400" y="570" width="250" height="115" rx="10" fill="#e5f4df" stroke="#4f7d4a" stroke-width="2" filter="url(#shadow)"/>
<text x="1525.0" y="621.5" text-anchor="middle" font-size="24" font-weight="700" fill="#1f2937">结果返回显控</text>
<text x="1525.0" y="651.5" text-anchor="middle" font-size="24" font-weight="700" fill="#1f2937">研判/候选方案/流程状态</text>
</svg>