<svg xmlns="http://www.w3.org/2000/svg" width="1700" height="940" viewBox="0 0 1700 940">
<defs><marker id="arrow" markerWidth="10" markerHeight="10" refX="9" refY="3" orient="auto" markerUnits="strokeWidth"><path d="M0,0 L0,6 L9,3 z" fill="#52616f"/></marker><filter id="shadow" x="-10%" y="-10%" width="120%" height="130%"><feDropShadow dx="0" dy="2" stdDeviation="2" flood-color="#1f2937" flood-opacity="0.12"/></filter></defs>
<rect width="100%" height="100%" fill="#fbfcfe"/>
<text x="42" y="58" font-size="30" font-weight="700" fill="#1f4e79">图4.3.3.2-5 记忆管理模块流转图</text>
<path d="M 110,310 L 467,310 L 467,230 L 820,230" fill="none" stroke="#52616f" stroke-width="3" stroke-linejoin="round" marker-end="url(#arrow)"/>
<path d="M 110,310 L 467,310 L 467,440 L 820,440" fill="none" stroke="#52616f" stroke-width="3" stroke-linejoin="round" marker-end="url(#arrow)"/>
<path d="M 110,310 L 690,310 L 690,445 L 1280,445" fill="none" stroke="#52616f" stroke-width="3" stroke-linejoin="round" marker-end="url(#arrow)"/>
<path d="M 670,170 L 670,335 L 670,335 L 670,500" fill="none" stroke="#52616f" stroke-width="3" stroke-linejoin="round" marker-end="url(#arrow)"/>
<path d="M 670,380 L 670,545 L 670,545 L 670,710" fill="none" stroke="#52616f" stroke-width="3" stroke-linejoin="round" marker-end="url(#arrow)"/>
<path d="M 520,230 L 892,230 L 892,445 L 1280,445" fill="none" stroke="#52616f" stroke-width="3" stroke-linejoin="round" marker-end="url(#arrow)"/>
<path d="M 520,440 L 892,440 L 892,445 L 1280,445" fill="none" stroke="#52616f" stroke-width="3" stroke-linejoin="round" marker-end="url(#arrow)"/>
<path d="M 520,650 L 892,650 L 892,445 L 1280,445" fill="none" stroke="#52616f" stroke-width="3" stroke-linejoin="round" marker-end="url(#arrow)"/>
<path d="M 950,445 L 1302,445 L 1302,350 L 1630,350" fill="none" stroke="#52616f" stroke-width="3" stroke-linejoin="round" marker-end="url(#arrow)"/>
<path d="M 1490,290 L 1490,470 L 1490,470 L 1490,650" fill="none" stroke="#52616f" stroke-width="3" stroke-linejoin="round" marker-end="url(#arrow)"/>
<path d="M 1630,590 L 1080,590 L 1080,650 L 520,650" fill="none" stroke="#52616f" stroke-width="3" stroke-linejoin="round" marker-end="url(#arrow)"/>
<path d="M 820,650 L 360,650 L 260,650 L 265,250" fill="none" stroke="#52616f" stroke-width="3" stroke-linejoin="round" marker-end="url(#arrow)"/>
<rect x="192" y="634" width="136" height="28" rx="7" fill="#fbfcfe" stroke="#d6dee8"/>
<text x="260" y="655" text-anchor="middle" font-size="15" fill="#64748b">召回支撑</text>
<rect x="110" y="250" width="310" height="120" rx="10" fill="#dbeafe" stroke="#1f4e79" stroke-width="2" filter="url(#shadow)"/>
<text x="265.0" y="304.0" text-anchor="middle" font-size="24" font-weight="700" fill="#1f2937">当前任务上下文</text>
<text x="265.0" y="334.0" text-anchor="middle" font-size="24" font-weight="700" fill="#1f2937">输入、目标、证据、工具结果</text>
<rect x="520" y="170" width="300" height="120" rx="10" fill="#d8f3f0" stroke="#2a7f7f" stroke-width="2" filter="url(#shadow)"/>
<text x="670.0" y="224.0" text-anchor="middle" font-size="24" font-weight="700" fill="#1f2937">短期记忆</text>
<text x="670.0" y="254.0" text-anchor="middle" font-size="24" font-weight="700" fill="#1f2937">上下文版本/证据编号/临时状态</text>
<rect x="520" y="380" width="300" height="120" rx="10" fill="#eee7ff" stroke="#7353a4" stroke-width="2" filter="url(#shadow)"/>
<text x="670.0" y="434.0" text-anchor="middle" font-size="24" font-weight="700" fill="#1f2937">中期任务链记忆</text>
<text x="670.0" y="464.0" text-anchor="middle" font-size="24" font-weight="700" fill="#1f2937">连续交互/对象关联/阶段状态</text>
<rect x="520" y="590" width="300" height="120" rx="10" fill="#e5f4df" stroke="#4f7d4a" stroke-width="2" filter="url(#shadow)"/>
<text x="670.0" y="644.0" text-anchor="middle" font-size="24" font-weight="700" fill="#1f2937">长期经验资产</text>
<text x="670.0" y="674.0" text-anchor="middle" font-size="24" font-weight="700" fill="#1f2937">知识/案例/策略/经验片段</text>
<rect x="950" y="380" width="330" height="130" rx="10" fill="#f1f5f9" stroke="#7b8794" stroke-width="2" filter="url(#shadow)"/>
<text x="1115.0" y="439.0" text-anchor="middle" font-size="24" font-weight="700" fill="#1f2937">统一追溯记录</text>
<text x="1115.0" y="469.0" text-anchor="middle" font-size="24" font-weight="700" fill="#1f2937">输入/推理/调用/审批/反馈</text>
<rect x="1350" y="290" width="280" height="120" rx="10" fill="#fff1cc" stroke="#b7791f" stroke-width="2" filter="url(#shadow)"/>
<text x="1490.0" y="344.0" text-anchor="middle" font-size="24" font-weight="700" fill="#1f2937">经验候选评估</text>
<text x="1490.0" y="374.0" text-anchor="middle" font-size="24" font-weight="700" fill="#1f2937">效果指标/冲突检查/人工确认</text>
<rect x="1350" y="530" width="280" height="120" rx="10" fill="#fde2e2" stroke="#b44747" stroke-width="2" filter="url(#shadow)"/>
<text x="1490.0" y="584.0" text-anchor="middle" font-size="24" font-weight="700" fill="#1f2937">受控回流</text>
<text x="1490.0" y="614.0" text-anchor="middle" font-size="24" font-weight="700" fill="#1f2937">长期沉淀/版本标识/适用范围</text>
<text x="42" y="898" font-size="18" fill="#64748b">长期经验只通过评估和受控回流形成，避免一次性任务记录被直接固化复用。</text>
</svg>